_________________________  Visit us at _________________________
  
http://p2pdl.com  ____________________________  http://p2pdl.com


The Prodigal Son 1981 BRRip 720p x264 Chinese ESubs - PRiSTiNE [P2PDL]

Genre: Action | Comedy
Plot: A rich man's son (Yuen Biao) believes himself to be the 
best kung fu fighter in Canton. Unfortunately, his father, 
anxious for his son's safety, bribes all his opponents to lose. 
After a humiliating defeat at the hands of an actor in a 
traveling theatre company, the son resolves to find a better teacher. 
Furious kung fu battles and slapstick comedy.
Director: Sammo Hung Kam-Bo
Stars: Yuen Biao, Ching-Ying Lam, Sammo Hung Kam-Bo
Rated: Rated R for martial arts violence

Info: 
http://www.imdb.com/title/tt0085211/

General
Complete name                  : The Prodigal Son 1981 BRRip 720p x264 Chinese ESubs - PRiSTiNE.mp4
Format                         : MPEG-4
File size                      : 601 MiB
Duration                       : 1h 44mn
Overall bit rate mode          : Variable
Overall bit rate               : 806 Kbps

Video
Format                         : AVC
Format/Info                    : Advanced Video Codec
Format profile                 : High 10@L4.1
Bit rate                       : 723 Kbps
Width                          : 1 280 pixels
Height                         : 540 pixels
Display aspect ratio           : 2.40:1
Frame rate mode                : Constant
Frame rate                     : 23.976 fps
Bit depth                      : 10 bits
Stream size                    : 539 MiB (90%)
Writing library                : x264 core 130 r2273 b3065e6

Audio
Format                         : AAC
Format/Info                    : Advanced Audio Codec
Bit rate                       : 80.0 Kbps
Channel(s)                     : 2 channels
Channel positions              : Front: L R
Sampling rate                  : 48.0 KHz / 24.0 KHz
Stream size                    : 59.5 MiB (10%)
Language                       : Chinese

Subtitle                       : Yes (English)
Source                         : 720p.BluRay.x264-HDWinG (Thanks)

Screenshots:
 
http://www.ultraimg.com/images/9K5LO.jpg 
http://www.ultraimg.com/images/JY8kD.jpg 
http://www.ultraimg.com/images/1TtPq.jpg 
http://www.ultraimg.com/images/QSx6F.jpg 
http://www.ultraimg.com/images/B2W1.jpg 
http://www.ultraimg.com/images/861gb.jpg 
http://www.ultraimg.com/images/w4mYe.jpg 
http://www.ultraimg.com/images/rS6Z.jpg

----------------------------------------------------------------------------------------------------


Encoded using revolutionary 10bit encoding, which enables us to provide you more crispier 
and sharper images at small sizes, just make sure you follow our instructions without a fault.
Recommend to you to use latest version of VLC player. Install K-Lite Codec Pack or shark007 codecs
in case of any kind of problem in playback (For non-VLC Media Player users). Alternatively, install
Core AVC codecs, the fastest decoder that there is coupled with Community Center Codec Pack and play
on Windows Media Player Classic. Check sample to be sure.
Enjoy!

Encoder Notes:Looking For Early Access To Anything You Can Provide DVDScr, R5, DVDR, BluRay, Direct
Audio, Music Releases and Seedboxes. We require dedicated servers, so as to do more 
and fast releases of movies.
If You Got anything to offer please contact us at "prg@hush.com".

Face book Fan Page:   
http://www.fb.me/p2pdl